# xmcd CD database file
#
# Track frame offsets:
#	150
#	16242
#	29341
#	56751
#	70298
#	84607
#	103085
#	119681
#	134771
#	146002
#	165280
#	174001
#	187674
#	202362
#
# Disc length: 2871 seconds
#
# Revision: 0
# Processed by: cddbd v1.5.2PL0 Copyright (c) Steve Scherf et al.
# Submitted via: CDex 1.70beta2
#
DISCID=c70b350e
DTITLE=Various Artist - Montecarlo Night Jazz
DYEAR=2007
DGENRE=Jazz
TTITLE0=Glenn Miller - In The Mood
TTITLE1=Billie Holiday - Summertime
TTITLE2=Paul Chambers and Cannonball Adderly - I Got Rithm
TTITLE3=Quincy Jones - Bossa Nova Usa
TTITLE4=Benny Goodman - Stompin' At The Savoy
TTITLE5=John Coltrane - Naima
TTITLE6=Wayne Shorter - Pay As You Go
TTITLE7=Woody Herman - Laura
TTITLE8=Dinah Washington - What A Difference A Day Made
TTITLE9=Bill Evans - Autumn Leaves
TTITLE10=Tony Bennett With The Count Basie Orchestra - Chicago
TTITLE11=Billie Holiday - They Can't Take That Away From Me
TTITLE12=Ella Fitzgerald - How High The Moon
TTITLE13=Django Reinhardt and Stephane Grappelli - Ain't Misbehavin'
EXTD=YEAR: 2007
EXTT0=
EXTT1=
EXTT2=
EXTT3=
EXTT4=
EXTT5=
EXTT6=
EXTT7=
EXTT8=
EXTT9=
EXTT10=
EXTT11=
EXTT12=
EXTT13=
PLAYORDER=
